<svg width="41" height="179" viewBox="0 0 41 179" fill="none" xmlns="http://www.w3.org/2000/svg">
<path d="M38.8305 0.488611C39.1222 0.0196305 39.7389 -0.124102 40.2078 0.167575C40.6768 0.459252 40.8205 1.07589 40.5289 1.54487L38.8305 0.488611ZM1.44068 109.346L2.44031 109.319L1.44068 109.346ZM25.29 177.626C25.1052 178.147 24.5335 178.419 24.013 178.234L15.5317 175.223C15.0112 175.038 14.7391 174.466 14.9238 173.946C15.1086 173.425 15.6803 173.153 16.2008 173.338L23.7398 176.015L26.4162 168.476C26.601 167.955 27.1727 167.683 27.6932 167.868C28.2136 168.053 28.4858 168.624 28.301 169.145L25.29 177.626ZM22.1453 175.008C21.9058 174.51 22.115 173.912 22.6127 173.673C23.1103 173.433 23.7079 173.643 23.9474 174.14L22.1453 175.008ZM21.321 168.714C21.5621 169.211 21.3548 169.809 20.8579 170.051C20.3611 170.292 19.7628 170.084 19.5217 169.588L21.321 168.714ZM16.8972 164.159C16.6581 163.661 16.868 163.064 17.3658 162.825C17.8637 162.586 18.4611 162.795 18.7001 163.293L16.8972 164.159ZM16.1259 157.859C16.3591 158.359 16.1422 158.954 15.6416 159.187C15.1409 159.421 14.546 159.204 14.3129 158.703L16.1259 157.859ZM11.8111 153.201C11.5878 152.695 11.8162 152.105 12.3213 151.882C12.8264 151.658 13.4169 151.887 13.6403 152.392L11.8111 153.201ZM11.287 146.875C11.4964 147.386 11.2517 147.97 10.7407 148.179C10.2296 148.389 9.64557 148.144 9.43626 147.633L11.287 146.875ZM7.23605 141.986C7.04513 141.468 7.31047 140.893 7.82871 140.702C8.34695 140.511 8.92183 140.776 9.11275 141.295L7.23605 141.986ZM7.16517 135.64C7.33315 136.166 7.04282 136.729 6.5167 136.897C5.99058 137.065 5.42791 136.774 5.25992 136.248L7.16517 135.64ZM3.55874 130.415C3.41824 129.881 3.73734 129.334 4.27145 129.193C4.80557 129.053 5.35245 129.372 5.49294 129.906L3.55874 130.415ZM4.14334 124.096C4.25204 124.637 3.9012 125.164 3.35972 125.273C2.81824 125.382 2.29116 125.031 2.18246 124.49L4.14334 124.096ZM1.17656 118.483C1.1034 117.936 1.48786 117.433 2.03528 117.36C2.5827 117.286 3.08577 117.671 3.15893 118.218L1.17656 118.483ZM2.57476 112.294C2.60959 112.845 2.191 113.32 1.63982 113.355C1.08864 113.39 0.613576 112.971 0.578745 112.42L2.57476 112.294ZM0.399222 106.433C0.398452 105.88 0.845545 105.432 1.39783 105.431C1.95011 105.431 2.39845 105.878 2.39922 106.43L0.399222 106.433ZM2.53672 100.655C2.50985 101.206 2.04088 101.632 1.48925 101.605C0.93762 101.578 0.512216 101.109 0.539087 100.557L2.53672 100.655ZM0.966599 94.6988C1.01989 94.149 1.50872 93.7466 2.05843 93.7999C2.60813 93.8532 3.01056 94.342 2.95727 94.8917L0.966599 94.6988ZM3.64745 89.1516C3.56913 89.6983 3.06246 90.078 2.51575 89.9997C1.96905 89.9214 1.58934 89.4147 1.66766 88.868L3.64745 89.1516ZM2.62637 83.0768C2.72819 82.534 3.25076 82.1765 3.79358 82.2783C4.3364 82.3801 4.69391 82.9027 4.59209 83.4455L2.62637 83.0768ZM5.77521 77.7812C5.65147 78.3194 5.11482 78.6554 4.57658 78.5317C4.03833 78.408 3.70231 77.8713 3.82605 77.3331L5.77521 77.7812ZM5.24949 71.6436C5.39356 71.1105 5.94256 70.795 6.47572 70.9391C7.00889 71.0832 7.32431 71.6322 7.18024 72.1653L5.24949 71.6436ZM8.79107 66.6014C8.62824 67.1291 8.06843 67.4249 7.54069 67.2621C7.01295 67.0993 6.71714 66.5395 6.87996 66.0117L8.79107 66.6014ZM8.7003 60.4421C8.88036 59.92 9.44958 59.6427 9.97169 59.8228C10.4938 60.0028 10.7711 60.5721 10.591 61.0942L8.7003 60.4421ZM12.5652 55.6435C12.3693 56.1599 11.7919 56.4198 11.2755 56.2239C10.7592 56.0281 10.4993 55.4507 10.6951 54.9343L12.5652 55.6435ZM12.849 49.4894C13.0592 48.9787 13.6436 48.7351 14.1543 48.9453C14.665 49.1556 14.9086 49.74 14.6984 50.2507L12.849 49.4894ZM16.9767 44.9152C16.7534 45.4203 16.1629 45.6487 15.6578 45.4254C15.1527 45.2021 14.9242 44.6116 15.1475 44.1065L16.9767 44.9152ZM17.5775 38.7837C17.8127 38.284 18.4085 38.0696 18.9082 38.3048C19.4079 38.54 19.6223 39.1357 19.3871 39.6355L17.5775 38.7837ZM21.9171 34.4096C21.6711 34.9041 21.0709 35.1056 20.5764 34.8597C20.0819 34.6138 19.8804 34.0135 20.1263 33.519L21.9171 34.4096ZM22.7819 28.3098C23.0375 27.8202 23.6415 27.6305 24.1311 27.8861C24.6207 28.1417 24.8104 28.7458 24.5549 29.2354L22.7819 28.3098ZM27.2898 24.1093C27.0256 24.5943 26.4183 24.7733 25.9333 24.509C25.4483 24.2448 25.2693 23.6375 25.5335 23.1525L27.2898 24.1093ZM28.3706 18.0436C28.6425 17.5629 29.2526 17.3936 29.7333 17.6655C30.2141 17.9374 30.3834 18.5475 30.1115 19.0282L28.3706 18.0436ZM33.0092 13.9896C32.7306 14.4665 32.1182 14.6271 31.6413 14.3485C31.1645 14.0699 31.0038 13.4574 31.2824 12.9806L33.0092 13.9896ZM34.2615 7.95573C34.546 7.48236 35.1603 7.32927 35.6337 7.61377C36.1071 7.89828 36.2602 8.51266 35.9757 8.98602L34.2615 7.95573ZM38.999 4.01727C38.7095 4.48759 38.0935 4.63418 37.6232 4.34467C37.1529 4.05517 37.0063 3.4392 37.2958 2.96888L38.999 4.01727ZM23.4447 177.721C23.0134 176.815 22.58 175.911 22.1453 175.008L23.9474 174.14C24.3831 175.046 24.8178 175.953 25.2505 176.862L23.4447 177.721ZM19.5217 169.588C18.6431 167.777 17.7657 165.968 16.8972 164.159L18.7001 163.293C19.5666 165.098 20.4423 166.904 21.321 168.714L19.5217 169.588ZM14.3129 158.703C13.4608 156.874 12.6244 155.04 11.8111 153.201L13.6403 152.392C14.4474 154.217 15.2782 156.038 16.1259 157.859L14.3129 158.703ZM9.43626 147.633C8.66969 145.761 7.93378 143.88 7.23605 141.986L9.11275 141.295C9.80133 143.164 10.5285 145.023 11.287 146.875L9.43626 147.633ZM5.25992 136.248C4.64443 134.32 4.07483 132.377 3.55874 130.415L5.49294 129.906C5.9996 131.832 6.55938 133.742 7.16517 135.64L5.25992 136.248ZM2.18246 124.49C1.78494 122.509 1.44719 120.508 1.17656 118.483L3.15893 118.218C3.42353 120.198 3.75398 122.156 4.14334 124.096L2.18246 124.49ZM0.578745 112.42C0.514952 111.411 0.468772 110.395 0.441044 109.373L2.44031 109.319C2.46738 110.317 2.51246 111.308 2.57476 112.294L0.578745 112.42ZM0.441044 109.373C0.414421 108.392 0.400586 107.412 0.399222 106.433L2.39922 106.43C2.40056 107.392 2.41416 108.355 2.44031 109.319L0.441044 109.373ZM0.539087 100.557C0.634495 98.5989 0.777847 96.6458 0.966599 94.6988L2.95727 94.8917C2.77153 96.8077 2.63053 98.7289 2.53672 100.655L0.539087 100.557ZM1.66766 88.868C1.94512 86.931 2.26554 85.0005 2.62637 83.0768L4.59209 83.4455C4.23641 85.3418 3.92072 87.2439 3.64745 89.1516L1.66766 88.868ZM3.82605 77.3331C4.26374 75.4292 4.73906 73.5326 5.24949 71.6436L7.18024 72.1653C6.67619 74.0307 6.20704 75.9028 5.77521 77.7812L3.82605 77.3331ZM6.87996 66.0117C7.45527 64.1471 8.06288 62.2904 8.7003 60.4421L10.591 61.0942C9.96047 62.9226 9.35969 64.7584 8.79107 66.6014L6.87996 66.0117ZM10.6951 54.9343C11.3867 53.1106 12.1055 51.2955 12.849 49.4894L14.6984 50.2507C13.9618 52.0402 13.2499 53.8379 12.5652 55.6435L10.6951 54.9343ZM15.1475 44.1065C15.9362 42.3227 16.747 40.5484 17.5775 38.7837L19.3871 39.6355C18.5629 41.3865 17.7587 43.1465 16.9767 44.9152L15.1475 44.1065ZM20.1263 33.519C20.9949 31.7724 21.8809 30.0358 22.7819 28.3098L24.5549 29.2354C23.6596 30.9503 22.7796 32.6752 21.9171 34.4096L20.1263 33.519ZM25.5335 23.1525C26.4673 21.4384 27.4139 19.7353 28.3706 18.0436L30.1115 19.0282C29.1596 20.7112 28.2183 22.405 27.2898 24.1093L25.5335 23.1525ZM31.2824 12.9806C32.2683 11.2934 33.2622 9.61831 34.2615 7.95573L35.9757 8.98602C34.9803 10.6421 33.9907 12.3101 33.0092 13.9896L31.2824 12.9806ZM37.2958 2.96888C37.8067 2.13879 38.3184 1.31201 38.8305 0.488611L40.5289 1.54487C40.0183 2.36578 39.5082 3.18993 38.999 4.01727L37.2958 2.96888Z" fill="white"/>
</svg>
