<svg width="41" height="179" viewBox="0 0 41 179" fill="none" xmlns="http://www.w3.org/2000/svg">
<path d="M2.21341 0.486963C1.92173 0.0179826 1.30509 -0.12575 0.836113 0.165927C0.367134 0.457604 0.223401 1.07424 0.515078 1.54322L2.21341 0.486963ZM39.6033 109.344L38.6036 109.317L39.6033 109.344ZM15.754 177.624C15.9387 178.145 16.5104 178.417 17.0309 178.232L25.5123 175.221C26.0327 175.036 26.3049 174.465 26.1201 173.944C25.9353 173.424 25.3636 173.152 24.8432 173.336L17.3042 176.013L14.6277 168.474C14.4429 167.953 13.8712 167.681 13.3508 167.866C12.8303 168.051 12.5582 168.623 12.743 169.143L15.754 177.624ZM18.8986 175.006C19.1382 174.508 18.9289 173.911 18.4313 173.671C17.9336 173.432 17.336 173.641 17.0965 174.139L18.8986 175.006ZM19.7229 168.713C19.4818 169.21 19.6891 169.808 20.186 170.049C20.6829 170.29 21.2811 170.083 21.5223 169.586L19.7229 168.713ZM24.1468 164.157C24.3858 163.659 24.176 163.062 23.6781 162.823C23.1802 162.584 22.5828 162.794 22.3438 163.292L24.1468 164.157ZM24.9181 157.857C24.6849 158.358 24.9017 158.953 25.4024 159.186C25.903 159.419 26.4979 159.202 26.7311 158.701L24.9181 157.857ZM29.2329 153.199C29.4562 152.694 29.2278 152.103 28.7226 151.88C28.2175 151.657 27.627 151.885 27.4037 152.39L29.2329 153.199ZM29.7569 146.873C29.5476 147.384 29.7922 147.968 30.3033 148.178C30.8144 148.387 31.3984 148.142 31.6077 147.631L29.7569 146.873ZM33.8079 141.984C33.9988 141.466 33.7335 140.891 33.2152 140.7C32.697 140.509 32.1221 140.775 31.9312 141.293L33.8079 141.984ZM33.8788 135.638C33.7108 136.164 34.0011 136.727 34.5272 136.895C35.0534 137.063 35.616 136.773 35.784 136.246L33.8788 135.638ZM37.4852 130.413C37.6257 129.879 37.3066 129.332 36.7725 129.192C36.2384 129.051 35.6915 129.37 35.551 129.904L37.4852 130.413ZM36.9006 124.094C36.7919 124.636 37.1427 125.163 37.6842 125.272C38.2257 125.38 38.7528 125.029 38.8615 124.488L36.9006 124.094ZM39.8674 118.482C39.9405 117.934 39.5561 117.431 39.0087 117.358C38.4613 117.285 37.9582 117.669 37.885 118.217L39.8674 118.482ZM38.4692 112.292C38.4344 112.843 38.8529 113.319 39.4041 113.353C39.9553 113.388 40.4304 112.97 40.4652 112.418L38.4692 112.292ZM40.6447 106.431C40.6455 105.879 40.1984 105.43 39.6461 105.43C39.0938 105.429 38.6455 105.876 38.6447 106.428L40.6447 106.431ZM38.5072 100.653C38.5341 101.205 39.0031 101.63 39.5547 101.603C40.1063 101.576 40.5317 101.107 40.5049 100.556L38.5072 100.653ZM40.0773 94.6971C40.0241 94.1474 39.5352 93.745 38.9855 93.7983C38.4358 93.8516 38.0334 94.3404 38.0867 94.8901L40.0773 94.6971ZM37.3965 89.15C37.4748 89.6967 37.9815 90.0764 38.5282 89.9981C39.0749 89.9198 39.4546 89.4131 39.3763 88.8664L37.3965 89.15ZM38.4176 83.0751C38.3158 82.5323 37.7932 82.1748 37.2504 82.2766C36.7075 82.3785 36.35 82.901 36.4519 83.4439L38.4176 83.0751ZM35.2687 77.7795C35.3925 78.3178 35.9291 78.6538 36.4674 78.53C37.0056 78.4063 37.3416 77.8697 37.2179 77.3314L35.2687 77.7795ZM35.7945 71.642C35.6504 71.1088 35.1014 70.7934 34.5682 70.9375C34.0351 71.0815 33.7196 71.6305 33.8637 72.1637L35.7945 71.642ZM32.2529 66.5997C32.4157 67.1275 32.9755 67.4233 33.5033 67.2605C34.031 67.0976 34.3268 66.5378 34.164 66.0101L32.2529 66.5997ZM32.3436 60.4405C32.1636 59.9184 31.5944 59.6411 31.0723 59.8211C30.5502 60.0012 30.2729 60.5704 30.4529 61.0925L32.3436 60.4405ZM28.4788 55.6419C28.6746 56.1583 29.252 56.4181 29.7684 56.2223C30.2848 56.0265 30.5447 55.4491 30.3488 54.9327L28.4788 55.6419ZM28.195 49.4878C27.9848 48.9771 27.4003 48.7335 26.8896 48.9437C26.3789 49.1539 26.1353 49.7384 26.3456 50.2491L28.195 49.4878ZM24.0672 44.9135C24.2905 45.4187 24.8811 45.6471 25.3862 45.4238C25.8913 45.2005 26.1197 44.6099 25.8964 44.1048L24.0672 44.9135ZM23.4664 38.7821C23.2312 38.2824 22.6355 38.068 22.1358 38.3032C21.6361 38.5383 21.4217 39.1341 21.6569 39.6338L23.4664 38.7821ZM19.1269 34.4079C19.3728 34.9024 19.973 35.104 20.4676 34.858C20.9621 34.6121 21.1636 34.0119 20.9177 33.5174L19.1269 34.4079ZM18.2621 28.3082C18.0065 27.8186 17.4024 27.6289 16.9128 27.8845C16.4232 28.14 16.2335 28.7441 16.4891 29.2337L18.2621 28.3082ZM13.7541 24.1076C14.0183 24.5926 14.6257 24.7716 15.1107 24.5074C15.5957 24.2432 15.7746 23.6358 15.5104 23.1509L13.7541 24.1076ZM12.6733 18.042C12.4014 17.5612 11.7913 17.3919 11.3106 17.6638C10.8299 17.9357 10.6606 18.5458 10.9325 19.0265L12.6733 18.042ZM8.0347 13.988C8.31334 14.4648 8.92577 14.6255 9.40262 14.3468C9.87946 14.0682 10.0401 13.4558 9.7615 12.9789L8.0347 13.988ZM6.78249 7.95408C6.49798 7.48071 5.88361 7.32762 5.41024 7.61213C4.93688 7.89663 4.78378 8.51101 5.06829 8.98438L6.78249 7.95408ZM2.04497 4.01562C2.33447 4.48594 2.95043 4.63253 3.42076 4.34302C3.89108 4.05352 4.03767 3.43756 3.74817 2.96723L2.04497 4.01562ZM17.5993 177.72C18.0305 176.814 18.4639 175.909 18.8986 175.006L17.0965 174.139C16.6608 175.044 16.2262 175.951 15.7934 176.86L17.5993 177.72ZM21.5223 169.586C22.4008 167.775 23.2782 165.966 24.1468 164.157L22.3438 163.292C21.4773 165.096 20.6016 166.902 19.7229 168.713L21.5223 169.586ZM26.7311 158.701C27.5831 156.872 28.4195 155.039 29.2329 153.199L27.4037 152.39C26.5966 154.216 25.7658 156.037 24.9181 157.857L26.7311 158.701ZM31.6077 147.631C32.3743 145.76 33.1102 143.878 33.8079 141.984L31.9312 141.293C31.2426 143.162 30.5155 145.021 29.7569 146.873L31.6077 147.631ZM35.784 136.246C36.3995 134.319 36.9691 132.375 37.4852 130.413L35.551 129.904C35.0443 131.831 34.4846 133.741 33.8788 135.638L35.784 136.246ZM38.8615 124.488C39.259 122.508 39.5968 120.506 39.8674 118.482L37.885 118.217C37.6204 120.196 37.29 122.155 36.9006 124.094L38.8615 124.488ZM40.4652 112.418C40.529 111.409 40.5752 110.393 40.6029 109.371L38.6036 109.317C38.5766 110.315 38.5315 111.307 38.4692 112.292L40.4652 112.418ZM40.6029 109.371C40.6295 108.39 40.6434 107.41 40.6447 106.431L38.6447 106.428C38.6434 107.39 38.6298 108.353 38.6036 109.317L40.6029 109.371ZM40.5049 100.556C40.4095 98.5972 40.2661 96.6442 40.0773 94.6971L38.0867 94.8901C38.2724 96.8061 38.4134 98.7272 38.5072 100.653L40.5049 100.556ZM39.3763 88.8664C39.0988 86.9294 38.7784 84.9988 38.4176 83.0751L36.4519 83.4439C36.8075 85.3401 37.1232 87.2423 37.3965 89.15L39.3763 88.8664ZM37.2179 77.3314C36.7802 75.4276 36.3049 73.531 35.7945 71.642L33.8637 72.1637C34.3678 74.0291 34.8369 75.9011 35.2687 77.7795L37.2179 77.3314ZM34.164 66.0101C33.5887 64.1455 32.9811 62.2888 32.3436 60.4405L30.4529 61.0925C31.0835 62.9209 31.6843 64.7568 32.2529 66.5997L34.164 66.0101ZM30.3488 54.9327C29.6572 53.1089 28.9384 51.2938 28.195 49.4878L26.3456 50.2491C27.0822 52.0386 27.7941 53.8363 28.4788 55.6419L30.3488 54.9327ZM25.8964 44.1048C25.1078 42.3211 24.297 40.5467 23.4664 38.7821L21.6569 39.6338C22.481 41.3848 23.2852 43.1448 24.0672 44.9135L25.8964 44.1048ZM20.9177 33.5174C20.049 31.7707 19.163 30.0342 18.2621 28.3082L16.4891 29.2337C17.3843 30.9487 18.2644 32.6736 19.1269 34.4079L20.9177 33.5174ZM15.5104 23.1509C14.5766 21.4367 13.6301 19.7336 12.6733 18.042L10.9325 19.0265C11.8843 20.7095 12.8257 22.4034 13.7541 24.1076L15.5104 23.1509ZM9.7615 12.9789C8.77562 11.2918 7.78176 9.61667 6.78249 7.95408L5.06829 8.98438C6.06364 10.6404 7.05328 12.3084 8.0347 13.988L9.7615 12.9789ZM3.74817 2.96723C3.23721 2.13714 2.72551 1.31036 2.21341 0.486963L0.515078 1.54322C1.02564 2.36414 1.53571 3.18829 2.04497 4.01562L3.74817 2.96723Z" fill="white"/>
</svg>
