<svg width="24" height="46" viewBox="0 0 24 46" fill="none" xmlns="http://www.w3.org/2000/svg">
<path fill-rule="evenodd" clip-rule="evenodd" d="M22.2942 1.61754C23.1004 1.8078 23.5998 2.61565 23.4096 3.42193C23.2193 4.22822 22.4115 4.72761 21.6052 4.53735C18.0719 3.70362 14.9029 3.96892 11.0118 4.44147C10.8634 6.49794 10.7624 8.10291 10.6806 9.40299L10.6806 9.4031L10.6805 9.40313C10.5205 11.9458 10.4339 13.3222 10.2101 14.6293C10.0688 15.4544 9.86887 16.2771 9.56458 17.3709C10.3157 17.739 11.0294 18.2235 11.6703 18.7619C12.7849 19.6984 13.7807 20.8826 14.4524 22.1354C17.5044 27.8281 18.1566 35.3925 15.0109 41.4945C14.1649 43.1356 13.0505 44.2652 11.7014 44.8937C10.3647 45.5164 8.95553 45.5734 7.64085 45.3607C5.09081 44.948 2.52943 43.4473 0.734352 42.3813C0.0220492 41.9584 -0.21249 41.038 0.210494 40.3257C0.633479 39.6134 1.55381 39.3789 2.26611 39.8019C4.15056 40.9209 6.22681 42.0928 8.12006 42.3992C9.02703 42.546 9.79096 42.4741 10.4346 42.1743C11.0659 41.8802 11.7393 41.2937 12.3444 40.1199C14.9644 35.0376 14.4747 28.5263 11.8084 23.5529C11.3356 22.671 10.5954 21.7772 9.74045 21.0588C9.39597 20.7694 9.0487 20.5216 8.7098 20.3185C8.30682 21.6883 7.80734 23.3877 7.18457 25.577C7.0249 26.1382 6.84851 26.6244 6.64524 27.0217C6.4597 27.3843 6.16701 27.8446 5.68892 28.1434C5.42581 28.3079 5.09504 28.4296 4.71542 28.4344C4.3368 28.4392 4.00923 28.3266 3.7531 28.1775C3.28736 27.9063 3.01067 27.4906 2.85706 27.2163C2.52975 26.6318 2.32124 25.876 2.19543 25.203C2.06501 24.5054 1.99528 23.7422 2.01938 23.0744C2.1007 20.8207 2.63814 19.0432 3.75376 17.9032C4.59776 17.0407 5.62495 16.6868 6.64951 16.6602C6.94344 15.6145 7.12331 14.8808 7.25309 14.1229C7.45104 12.9669 7.523 11.8146 7.66832 9.48759C7.76469 7.94441 7.89333 5.88461 8.11236 2.96449C8.17395 2.14341 8.88552 1.52647 9.70531 1.57984C13.9922 1.04559 17.8898 0.578277 22.2942 1.61754ZM5.16432 21.7473C5.24939 21.2873 5.36212 20.9286 5.48418 20.6511C5.38329 20.9957 5.2768 21.3604 5.16432 21.7473ZM3.91531 25.7568C3.91527 25.7566 3.91724 25.7537 3.92138 25.7485C3.91743 25.7544 3.91536 25.757 3.91531 25.7568ZM5.48617 25.7703C5.49327 25.7796 5.49659 25.785 5.49648 25.7854C5.49637 25.7858 5.49282 25.7812 5.48617 25.7703Z" fill="#874CD9"/>
</svg>
