<svg width="18" height="48" viewBox="0 0 18 48" fill="none" xmlns="http://www.w3.org/2000/svg">
<path fill-rule="evenodd" clip-rule="evenodd" d="M17.4835 3.89649C17.4523 3.34996 17.4144 2.91866 17.3647 2.60511C17.3419 2.46051 17.3051 2.26379 17.2366 2.073C17.2052 1.98548 17.1339 1.80266 16.9912 1.61387C16.8627 1.44376 16.4763 1.01388 15.7981 0.998234C15.1339 0.982914 14.7329 1.37985 14.6036 1.52741C14.4541 1.69809 14.3719 1.86643 14.3354 1.94654C14.2558 2.12069 14.2079 2.29612 14.1798 2.40863C14.1179 2.65623 14.0659 2.96109 14.0219 3.25949C13.8607 4.35238 13.7189 5.99101 13.6632 6.63451L13.6632 6.63478L13.6492 6.79617C13.373 9.93166 13.0484 13.0112 12.6698 16.0608C11.5324 18.8082 9.90389 21.5339 8.05168 24.2511C6.80651 26.0777 5.47681 27.8773 4.14573 29.6652L3.73536 30.2161L3.73533 30.2161C2.54714 31.8108 1.36352 33.3994 0.271143 34.9605C-0.20382 35.6392 -0.0386171 36.5745 0.640134 37.0494C1.31888 37.5244 2.25415 37.3592 2.72912 36.6805C3.7942 35.1584 4.95008 33.607 6.14265 32.0064L6.55206 31.4567C7.88298 29.6691 9.24642 27.8246 10.5305 25.9408C10.8461 25.4778 11.158 25.011 11.4643 24.5405C10.4984 30.5577 9.29699 36.5518 7.81632 42.7285C7.70443 43.1953 7.82407 43.6634 8.10122 44.0122C7.21859 44.1346 6.3493 44.2683 5.50927 44.3976L5.50923 44.3976C4.98844 44.4778 4.4789 44.5562 3.98441 44.6291C3.16483 44.7499 2.59837 45.5122 2.71917 46.3318C2.83997 47.1514 3.60229 47.7178 4.42186 47.597C4.95785 47.518 5.49599 47.4355 6.03465 47.3528C8.67663 46.9476 11.3309 46.5405 13.8027 46.5405C14.6311 46.5405 15.3027 45.8689 15.3027 45.0405C15.3027 44.212 14.6311 43.5405 13.8027 43.5405C12.7679 43.5405 11.7035 43.6055 10.6365 43.7085C10.6773 43.62 10.7101 43.5262 10.7337 43.4278C12.9017 34.3837 14.4786 25.723 15.5978 16.8234C15.9721 15.8841 16.2971 14.9338 16.562 13.973C17.4608 10.713 17.6671 7.11078 17.4835 3.89649ZM17.0969 3.11087C17.0979 3.10723 17.0985 3.10554 17.0985 3.1056L17.0969 3.11087Z" fill="#874CD9"/>
</svg>
