<svg width="22" height="45" viewBox="0 0 22 45" fill="none" xmlns="http://www.w3.org/2000/svg">
<path fill-rule="evenodd" clip-rule="evenodd" d="M13.5446 2.8988C13.7659 2.10046 13.2981 1.27392 12.4997 1.05267C11.7014 0.831416 10.8749 1.29923 10.6536 2.09757C10.2508 3.55095 9.85537 5.00196 9.46076 6.4499L9.46075 6.44993C8.03305 11.6887 6.61629 16.8872 4.90182 22.0126L4.87357 22.0971C4.18715 24.1496 3.6472 25.7642 2.38094 27.1015C2.30146 27.1854 2.08476 27.3816 1.76016 27.6663C1.68979 27.728 1.61578 27.7927 1.54035 27.8586L1.54034 27.8586C1.30434 28.0648 1.05446 28.2831 0.858441 28.4617C0.733388 28.5755 0.594505 28.7054 0.48567 28.8215C0.445219 28.8646 0.338089 28.9794 0.244504 29.1269L0.242015 29.1308L0.242011 29.1308C0.209766 29.1814 0.0623891 29.4125 0.0151869 29.7424C-0.0123843 29.935 -0.0239947 30.2904 0.177335 30.668C0.396828 31.0797 0.750814 31.2986 1.04483 31.3937C1.47949 31.5343 1.8499 31.4325 1.90917 31.4162L1.91457 31.4147C2.03305 31.3834 2.12793 31.3438 2.17919 31.3213C2.28815 31.2735 2.39279 31.2164 2.4756 31.1692C2.65034 31.0694 2.87924 30.9258 3.16257 30.7406C3.57792 30.469 4.54799 30.0908 5.96178 29.7284C7.32135 29.3798 8.93479 29.0845 10.5138 28.9121C12.1046 28.7384 13.5929 28.6971 14.7236 28.8246C15.2914 28.8886 15.7042 28.9885 15.9737 29.0976C16.1079 29.1519 16.1732 29.1946 16.1983 29.2132C16.3458 29.4532 16.5512 29.6378 16.7862 29.7591C16.3039 34.0229 15.8372 38.288 15.3855 42.5559C15.2983 43.3797 15.8954 44.1182 16.7193 44.2054C17.5431 44.2926 18.2816 43.6955 18.3688 42.8716C19.4704 32.4636 20.6611 22.0727 21.9501 11.6782C22.052 10.8561 21.4682 10.107 20.6461 10.005C19.8239 9.90308 19.0748 10.4869 18.9729 11.309C18.3512 16.3223 17.7524 21.3346 17.1753 26.3483C17.15 26.3375 17.1247 26.327 17.0996 26.3168C16.4836 26.0674 15.7756 25.9242 15.0596 25.8435C13.6226 25.6815 11.891 25.7439 10.1882 25.9298C8.89383 26.0711 7.57701 26.2882 6.36264 26.5518C6.92393 25.4354 7.30264 24.298 7.65184 23.2493L7.74687 22.9643C9.49109 17.75 10.9371 12.4434 12.368 7.19259L12.368 7.19257L12.3681 7.19198C12.7595 5.75574 13.1497 4.32367 13.5446 2.8988ZM2.67463 30.8729L2.67744 30.87C2.66788 30.8809 2.66574 30.8824 2.67463 30.8729Z" fill="#874CD9"/>
</svg>
