<svg width="149" height="52" viewBox="0 0 149 52" fill="none" xmlns="http://www.w3.org/2000/svg">
<path d="M147.98 3.03583C148.683 2.59712 148.897 1.67177 148.458 0.969018C148.02 0.266264 147.094 0.052219 146.392 0.490935L147.98 3.03583ZM86.8881 33.972L86.4239 32.5456L86.8881 33.972ZM24.8224 40.9267L24.832 42.4267L24.8224 40.9267ZM1.63929 35.6262C0.861172 35.9105 0.46078 36.7717 0.744996 37.5499L5.37656 50.2307C5.66078 51.0089 6.52196 51.4092 7.30008 51.125C8.0782 50.8407 8.47859 49.9795 8.19438 49.2013L4.07744 37.9295L15.3487 33.8119C16.1268 33.5276 16.5272 32.6663 16.243 31.8882C15.9588 31.11 15.0976 30.7096 14.3195 30.9939L1.63929 35.6262ZM146.392 0.490935C127.092 12.54 107.958 25.5367 86.4239 32.5456L87.3522 35.3984C109.326 28.2465 128.843 14.9832 147.98 3.03583L146.392 0.490935ZM86.4239 32.5456C67.0252 38.8595 45.4405 39.2946 24.8129 39.4267L24.832 42.4267C45.4052 42.295 67.4456 41.8776 87.3522 35.3984L86.4239 32.5456ZM24.8129 39.4267C16.913 39.4773 9.74334 38.9094 2.78627 35.6749L1.52155 38.3954C9.09351 41.9158 16.8065 42.4781 24.832 42.4267L24.8129 39.4267Z" fill="#FCC500"/>
</svg>
