<svg width="26" height="153" viewBox="0 0 26 153" fill="none" xmlns="http://www.w3.org/2000/svg">
<path d="M11.6478 1.85603C11.4242 1.05836 10.5962 0.592967 9.79852 0.816549C9.00084 1.04013 8.53548 1.86802 8.75913 2.66569L11.6478 1.85603ZM24.1765 69.1785L22.6771 69.2232L24.1765 69.1785ZM13.4157 130.698L14.858 131.111L13.4157 130.698ZM1.81614 151.459C1.87037 152.286 2.58448 152.912 3.41114 152.858L16.8824 151.975C17.7091 151.921 18.3353 151.207 18.281 150.38C18.2268 149.553 17.5127 148.927 16.686 148.981L4.71157 149.766L3.92607 137.792C3.87184 136.965 3.15774 136.339 2.33108 136.393C1.50441 136.448 0.878225 137.162 0.932453 137.988L1.81614 151.459ZM8.75913 2.66569C14.9013 24.5732 21.9997 46.5872 22.6771 69.2232L25.6758 69.1337C24.9846 46.0358 17.7381 23.5787 11.6478 1.85603L8.75913 2.66569ZM22.6771 69.2232C23.2873 89.6144 17.6413 110.452 11.9734 130.286L14.858 131.111C20.511 111.329 26.302 90.0588 25.6758 69.1337L22.6771 69.2232ZM11.9734 130.286C9.80277 137.882 7.24369 144.604 2.18512 150.372L4.44078 152.35C9.94644 146.072 12.6529 138.827 14.858 131.111L11.9734 130.286Z" fill="#FCC500"/>
</svg>
