<svg width="150" height="46" viewBox="0 0 150 46" fill="none" xmlns="http://www.w3.org/2000/svg">
<path d="M147.675 44.6448C148.503 44.6144 149.149 43.9185 149.119 43.0907C149.088 42.2628 148.393 41.6164 147.565 41.6468L147.675 44.6448ZM79.2912 41.0466L79.5991 39.5785L79.2912 41.0466ZM22.0065 16.1675L21.2677 17.4731L22.0065 16.1675ZM4.54258 0.0254782C3.72626 -0.115539 2.95012 0.431918 2.80905 1.24825L0.510088 14.5512C0.369013 15.3676 0.916402 16.1437 1.73273 16.2847C2.54906 16.4257 3.32519 15.8782 3.46626 15.0619L5.5098 3.23703L17.3345 5.2797C18.1508 5.42072 18.927 4.87327 19.068 4.05693C19.2091 3.24059 18.6617 2.4645 17.8454 2.32349L4.54258 0.0254782ZM147.565 41.6468C124.828 42.4836 101.763 44.2251 79.5991 39.5785L78.9833 42.5147C101.6 47.2561 125.13 45.4745 147.675 44.6448L147.565 41.6468ZM79.5991 39.5785C59.6328 35.3928 40.6985 25.0204 22.7452 14.862L21.2677 17.4731C39.1737 27.6047 58.4942 38.2193 78.9833 42.5147L79.5991 39.5785ZM22.7452 14.862C15.8695 10.9716 9.93505 6.90852 5.51294 0.638955L3.06135 2.36822C7.87431 9.1919 14.2827 13.5208 21.2677 17.4731L22.7452 14.862Z" fill="#FCC500"/>
</svg>
