<svg width="76" height="51" viewBox="0 0 76 51" fill="none" xmlns="http://www.w3.org/2000/svg">
<path d="M38.0783 39.3228C48.1525 38.6376 57.6844 37.4591 66.4524 32.5813C67.5935 31.9521 68.6169 31.1214 69.5251 30.2037C70.8012 28.9141 71.6318 27.5101 71.7476 26.0184C71.8655 24.499 71.2307 23.0496 69.9121 21.7171C67.1682 18.9442 64.0176 16.354 60.652 14.4533L60.6503 14.4524C52.7174 9.99879 44.1142 7.43421 35.3458 5.95738L35.3398 5.95642C28.4479 4.85313 21.4977 4.08812 14.5546 3.32391C11.6324 3.00226 8.71148 2.68075 5.79668 2.33421L5.79182 2.33366C4.90759 2.23438 4.00124 2.16018 3.09546 2.08696L2.99402 2.07876C2.29666 2.02241 1.59945 1.96607 0.90287 1.8985C0.891197 1.84147 0.879486 1.78278 0.867744 1.72241C1.29842 1.6336 1.72705 1.53432 2.14499 1.43752C2.35851 1.38806 2.56923 1.33925 2.776 1.29282C3.6373 1.09941 4.45656 0.940247 5.26103 0.894586C21.6379 0.213662 37.6962 1.87017 53.1627 7.30624C58.0457 9.04797 62.8362 11.3714 67.2443 14.0829L67.2511 14.0871L67.258 14.0911C72.0079 16.8751 75.6616 20.6639 75.2112 26.4893C74.763 32.2869 70.3241 35.0568 65.2788 37.5081C59.2923 40.3886 52.8083 41.6476 46.2497 42.5248L46.249 42.5249C46.2153 42.5294 46.1816 42.5339 46.1477 42.5385C44.7262 42.7295 43.0715 42.9519 41.3212 43.9924L40.1296 44.7007L41.3744 45.3106C43.0137 46.1138 44.5963 46.9014 46.2064 47.7027C47.495 48.3439 48.8011 48.994 50.1681 49.6678C49.7248 50.0535 49.3013 50.1934 48.9169 50.2352C48.3665 50.2951 47.8399 50.1691 47.253 50.0286C47.1728 50.0094 47.0914 49.9899 47.0088 49.9706C39.9527 48.2124 32.9018 46.3577 25.9504 44.3088L25.9504 44.3088L25.9434 44.3068C24.5355 43.9067 23.9813 43.2246 23.8746 42.6634C23.7673 42.1 24.0387 41.2814 25.1248 40.4451C30.6665 36.3653 36.9599 33.969 43.8389 32.8937C43.8498 32.9011 43.8618 32.9094 43.875 32.9187C43.9028 32.9381 43.9353 32.9614 43.9718 32.9875C44.0093 33.0144 44.051 33.0443 44.0963 33.0762C43.9861 33.6707 43.7457 34.0692 43.4423 34.3739C43.0464 34.7716 42.4959 35.0587 41.7913 35.3519C41.6091 35.4277 41.4123 35.5054 41.207 35.5863C40.6683 35.7988 40.0713 36.0343 39.5275 36.3201C38.7469 36.7305 37.9777 37.2879 37.4014 38.1615L36.5674 39.4256L38.0783 39.3228ZM43.7518 32.8382C43.7447 32.8351 43.7439 32.8341 43.7501 32.8373C43.7506 32.8376 43.7512 32.8379 43.7518 32.8382Z" fill="#FCC500" stroke="#00031B" stroke-width="1.5"/>
</svg>
