<svg width="30" height="153" viewBox="0 0 30 153" fill="none" xmlns="http://www.w3.org/2000/svg">
<path d="M11.0054 151.259C11.1843 152.068 11.9851 152.578 12.794 152.399C13.6029 152.221 14.1135 151.42 13.9346 150.611L11.0054 151.259ZM2.23744 83.3441L3.73696 83.3827L2.23744 83.3441ZM16.4004 22.5171L14.9833 22.0254L16.4004 22.5171ZM29.1358 2.43321C29.1276 1.60484 28.4494 0.939907 27.621 0.948056L14.1215 1.08086C13.2931 1.08901 12.6282 1.76713 12.6364 2.59551C12.6446 3.42389 13.3228 4.08882 14.1512 4.08067L26.1508 3.96264L26.2696 15.9619C26.2778 16.7903 26.956 17.4552 27.7844 17.4471C28.6128 17.4389 29.2777 16.7608 29.2695 15.9324L29.1358 2.43321ZM13.9346 150.611C9.01937 128.396 3.15529 106.021 3.73696 83.3827L0.737912 83.3055C0.14437 106.406 6.13164 129.231 11.0054 151.259L13.9346 150.611ZM3.73696 83.3827C4.26095 62.9891 11.0562 42.4973 17.8176 23.0089L14.9833 22.0254C8.23972 41.4625 1.27562 62.3779 0.737912 83.3055L3.73696 83.3827ZM17.8176 23.0089C20.407 15.5452 23.3357 8.97641 28.707 3.49814L26.5648 1.3978C20.7187 7.36028 17.6139 14.4431 14.9833 22.0254L17.8176 23.0089Z" fill="#FCC500"/>
</svg>
