<svg width="137" height="81" viewBox="0 0 137 81" fill="none" xmlns="http://www.w3.org/2000/svg">
<path d="M2.11773 0.633477C1.30947 0.451786 0.506911 0.959706 0.325163 1.76795C0.143415 2.57619 0.651303 3.37869 1.45956 3.56038L2.11773 0.633477ZM67.322 21.5542L66.6499 22.8952L67.322 21.5542ZM116.367 60.2211L117.414 59.1472L116.367 60.2211ZM129.136 80.2835C129.889 80.6281 130.779 80.2967 131.124 79.5433L136.74 67.2667C137.085 66.5133 136.753 65.6233 136 65.2787C135.246 64.9342 134.356 65.2656 134.012 66.0189L129.02 76.9315L118.107 71.9404C117.354 71.5959 116.464 71.9273 116.119 72.6806C115.774 73.434 116.106 74.324 116.859 74.6686L129.136 80.2835ZM1.45956 3.56038C23.6579 8.55041 46.4037 12.7492 66.6499 22.8952L67.9942 20.2132C47.3348 9.86014 24.1288 5.58141 2.11773 0.633477L1.45956 3.56038ZM66.6499 22.8952C84.8882 32.035 100.551 46.8935 115.319 61.295L117.414 59.1472C102.684 44.7837 86.7101 29.5923 67.9942 20.2132L66.6499 22.8952ZM115.319 61.295C120.975 66.8105 125.677 72.2528 128.354 79.4428L131.166 78.3961C128.252 70.5705 123.16 64.7503 117.414 59.1472L115.319 61.295Z" fill="#FCC500"/>
</svg>
