<svg width="76" height="51" viewBox="0 0 76 51" fill="none" xmlns="http://www.w3.org/2000/svg">
<path d="M37.9198 39.3228C27.8456 38.6376 18.3136 37.4591 9.54567 32.5813C8.40457 31.9521 7.38111 31.1214 6.47298 30.2037C5.19681 28.9141 4.36625 27.5101 4.25048 26.0184C4.13255 24.499 4.76733 23.0496 6.08593 21.7171C8.82986 18.9442 11.9804 16.354 15.3461 14.4533L15.3477 14.4524C23.2807 9.99879 31.8839 7.43421 40.6523 5.95738L40.6583 5.95642C47.5502 4.85313 54.5004 4.08812 61.4434 3.32391C64.3656 3.00226 67.2866 2.68075 70.2014 2.33421L70.2062 2.33366C71.0905 2.23438 71.9968 2.16018 72.9026 2.08696L73.004 2.07876C73.7014 2.02241 74.3986 1.96607 75.0952 1.8985C75.1068 1.84147 75.1186 1.78278 75.1303 1.72241C74.6996 1.6336 74.271 1.53432 73.8531 1.43752C73.6395 1.38806 73.4288 1.33925 73.222 1.29282C72.3607 1.09941 71.5415 0.940247 70.737 0.894586C54.3601 0.213662 38.3018 1.87017 22.8353 7.30624C17.9523 9.04797 13.1618 11.3714 8.75374 14.0829L8.74693 14.0871L8.74004 14.0911C3.99018 16.8751 0.336465 20.6639 0.78683 26.4893C1.23504 32.2869 5.67396 35.0568 10.7193 37.5081C16.7057 40.3886 23.1898 41.6476 29.7484 42.5248L29.7491 42.5249C29.7827 42.5294 29.8164 42.5339 29.8503 42.5385C31.2718 42.7295 32.9265 42.9519 34.6769 43.9924L35.8684 44.7007L34.6236 45.3106C32.9843 46.1138 31.4017 46.9014 29.7916 47.7027C28.5031 48.3439 27.1969 48.994 25.83 49.6678C26.2732 50.0535 26.6967 50.1934 27.0812 50.2352C27.6315 50.2951 28.1582 50.1691 28.7451 50.0286C28.8253 50.0094 28.9066 49.9899 28.9893 49.9706C36.0453 48.2124 43.0962 46.3577 50.0477 44.3088L50.0477 44.3088L50.0547 44.3068C51.4625 43.9067 52.0167 43.2246 52.1235 42.6634C52.2307 42.1 51.9593 41.2814 50.8732 40.4451C45.3315 36.3653 39.0382 33.969 32.1591 32.8937C32.1482 32.9011 32.1363 32.9094 32.123 32.9187C32.0952 32.9381 32.0628 32.9614 32.0263 32.9875C31.9888 33.0144 31.947 33.0443 31.9017 33.0762C32.012 33.6707 32.2523 34.0692 32.5557 34.3739C32.9517 34.7716 33.5022 35.0587 34.2068 35.3519C34.389 35.4277 34.5858 35.5054 34.7911 35.5863C35.3298 35.7988 35.9267 36.0343 36.4705 36.3201C37.2512 36.7305 38.0204 37.2879 38.5967 38.1615L39.4306 39.4256L37.9198 39.3228ZM32.2462 32.8382C32.2533 32.8351 32.2542 32.8341 32.248 32.8373C32.2474 32.8376 32.2469 32.8379 32.2462 32.8382Z" fill="#FCC500" stroke="#00031B" stroke-width="1.5"/>
</svg>
