<svg width="26" height="47" viewBox="0 0 26 47" fill="none" xmlns="http://www.w3.org/2000/svg">
<path d="M6.7361 11.8864C9.67719 7.75893 12.8433 4.26434 17.8069 2.32092C20.88 1.11769 20.7777 3.50473 20.9309 5.73715C21.2371 10.2006 21.4085 14.7452 18.5742 18.5086C16.0542 21.8547 12.8351 24.4778 10.4081 27.9689C7.25042 32.5111 4.99996 37.407 2.29681 42.1594C1.63064 43.3306 2.06222 39.7059 3.83138 38.5855C5.73301 37.3813 8.87305 39.9831 10.1889 41.2134C10.8283 41.8113 12.5374 45.0452 13.258 44.9975C14.6791 44.9035 16.4016 43.6478 17.6973 43.2106C19.7581 42.5152 21.9637 41.8643 24 41.2134" stroke="#874CD9" stroke-width="3" stroke-linecap="round"/>
</svg>
